<mxfile host="www.draw.io" modified="2019-11-21T08:57:38.198Z" agent="Mozilla/5.0 (X11; Linux x86_64) AppleWebKit/537.36 (KHTML, like Gecko) Chrome/78.0.3904.87 Safari/537.36" etag="kDZHU1eIyzYnhJd7kB_4" version="12.2.7" type="github" pages="1">
  <diagram id="zMLtz5oXTfzLUbET5rYU" name="Page-1">
    <mxGraphModel dx="1408" dy="760" grid="1" gridSize="10" guides="1" tooltips="1" connect="1" arrows="1" fold="1" page="1" pageScale="1" pageWidth="850" pageHeight="1100" math="0" shadow="0">
      <root>
        <mxCell id="0"/>
        <mxCell id="1" parent="0"/>
        <mxCell id="HMnzymwOtI_n0Ta_HW3j-2" value="" style="image;html=1;labelBackgroundColor=#ffffff;image=img/lib/clip_art/computers/Server_128x128.png" vertex="1" parent="1">
          <mxGeometry x="350" y="75" width="80" height="80" as="geometry"/>
        </mxCell>
        <mxCell id="HMnzymwOtI_n0Ta_HW3j-3" value="" style="image;html=1;labelBackgroundColor=#ffffff;image=img/lib/clip_art/computers/Server_128x128.png" vertex="1" parent="1">
          <mxGeometry x="350" y="200" width="80" height="80" as="geometry"/>
        </mxCell>
        <mxCell id="HMnzymwOtI_n0Ta_HW3j-5" value="" style="image;html=1;labelBackgroundColor=#ffffff;image=img/lib/clip_art/computers/Server_128x128.png" vertex="1" parent="1">
          <mxGeometry x="130" y="150" width="80" height="80" as="geometry"/>
        </mxCell>
        <mxCell id="HMnzymwOtI_n0Ta_HW3j-6" value="" style="shape=flexArrow;endArrow=classic;html=1;" edge="1" parent="1">
          <mxGeometry width="50" height="50" relative="1" as="geometry">
            <mxPoint x="30" y="140" as="sourcePoint"/>
            <mxPoint x="130" y="140" as="targetPoint"/>
          </mxGeometry>
        </mxCell>
        <mxCell id="HMnzymwOtI_n0Ta_HW3j-7" value="" style="shape=flexArrow;endArrow=classic;html=1;" edge="1" parent="1">
          <mxGeometry width="50" height="50" relative="1" as="geometry">
            <mxPoint x="200" y="149.5" as="sourcePoint"/>
            <mxPoint x="370" y="190" as="targetPoint"/>
          </mxGeometry>
        </mxCell>
        <mxCell id="HMnzymwOtI_n0Ta_HW3j-9" value="" style="aspect=fixed;perimeter=ellipsePerimeter;html=1;align=center;shadow=0;dashed=0;spacingTop=3;image;image=img/lib/active_directory/web_server.svg;" vertex="1" parent="1">
          <mxGeometry x="150" y="115" width="40" height="50" as="geometry"/>
        </mxCell>
        <mxCell id="HMnzymwOtI_n0Ta_HW3j-11" value="" style="aspect=fixed;perimeter=ellipsePerimeter;html=1;align=center;shadow=0;dashed=0;spacingTop=3;image;image=img/lib/active_directory/web_server.svg;" vertex="1" parent="1">
          <mxGeometry x="380" y="30" width="40" height="50" as="geometry"/>
        </mxCell>
        <mxCell id="HMnzymwOtI_n0Ta_HW3j-12" value="" style="aspect=fixed;perimeter=ellipsePerimeter;html=1;align=center;shadow=0;dashed=0;spacingTop=3;image;image=img/lib/active_directory/web_server.svg;" vertex="1" parent="1">
          <mxGeometry x="380" y="165" width="40" height="50" as="geometry"/>
        </mxCell>
        <mxCell id="HMnzymwOtI_n0Ta_HW3j-13" value="" style="shape=flexArrow;endArrow=classic;html=1;" edge="1" parent="1">
          <mxGeometry width="50" height="50" relative="1" as="geometry">
            <mxPoint x="200" y="130" as="sourcePoint"/>
            <mxPoint x="370" y="60" as="targetPoint"/>
          </mxGeometry>
        </mxCell>
        <mxCell id="HMnzymwOtI_n0Ta_HW3j-14" value="" style="aspect=fixed;perimeter=ellipsePerimeter;html=1;align=center;shadow=0;dashed=0;spacingTop=3;image;image=img/lib/active_directory/web_server.svg;" vertex="1" parent="1">
          <mxGeometry x="600" y="50" width="40" height="50" as="geometry"/>
        </mxCell>
        <mxCell id="HMnzymwOtI_n0Ta_HW3j-15" value="Web Server" style="text;html=1;resizable=0;points=[];autosize=1;align=left;verticalAlign=top;spacingTop=-4;" vertex="1" parent="1">
          <mxGeometry x="650" y="65" width="80" height="20" as="geometry"/>
        </mxCell>
        <mxCell id="HMnzymwOtI_n0Ta_HW3j-16" value="" style="image;html=1;labelBackgroundColor=#ffffff;image=img/lib/clip_art/computers/Server_128x128.png" vertex="1" parent="1">
          <mxGeometry x="580" y="140" width="80" height="80" as="geometry"/>
        </mxCell>
        <mxCell id="HMnzymwOtI_n0Ta_HW3j-17" value="Server" style="text;html=1;resizable=0;points=[];autosize=1;align=left;verticalAlign=top;spacingTop=-4;" vertex="1" parent="1">
          <mxGeometry x="680" y="165" width="50" height="20" as="geometry"/>
        </mxCell>
        <mxCell id="HMnzymwOtI_n0Ta_HW3j-18" value="HTTP" style="text;html=1;resizable=0;points=[];autosize=1;align=left;verticalAlign=top;spacingTop=-4;" vertex="1" parent="1">
          <mxGeometry x="60" y="115" width="50" height="20" as="geometry"/>
        </mxCell>
        <mxCell id="HMnzymwOtI_n0Ta_HW3j-22" value="HTTP" style="text;html=1;resizable=0;points=[];autosize=1;align=left;verticalAlign=top;spacingTop=-4;" vertex="1" parent="1">
          <mxGeometry x="60" y="215" width="50" height="20" as="geometry"/>
        </mxCell>
        <mxCell id="HMnzymwOtI_n0Ta_HW3j-19" value="" style="aspect=fixed;html=1;points=[];align=center;image;fontSize=12;image=img/lib/mscae/DNS.svg;" vertex="1" parent="1">
          <mxGeometry x="600" y="260" width="50" height="50" as="geometry"/>
        </mxCell>
        <mxCell id="HMnzymwOtI_n0Ta_HW3j-20" value="DNS Server" style="text;html=1;resizable=0;points=[];autosize=1;align=left;verticalAlign=top;spacingTop=-4;" vertex="1" parent="1">
          <mxGeometry x="665" y="280" width="80" height="20" as="geometry"/>
        </mxCell>
        <mxCell id="HMnzymwOtI_n0Ta_HW3j-21" value="" style="aspect=fixed;html=1;points=[];align=center;image;fontSize=12;image=img/lib/mscae/DNS.svg;" vertex="1" parent="1">
          <mxGeometry x="160" y="465" width="50" height="50" as="geometry"/>
        </mxCell>
        <mxCell id="HMnzymwOtI_n0Ta_HW3j-24" value="" style="shape=flexArrow;endArrow=classic;html=1;" edge="1" parent="1">
          <mxGeometry width="50" height="50" relative="1" as="geometry">
            <mxPoint x="50" y="490" as="sourcePoint"/>
            <mxPoint x="150" y="490" as="targetPoint"/>
          </mxGeometry>
        </mxCell>
        <mxCell id="HMnzymwOtI_n0Ta_HW3j-26" value="url1" style="text;html=1;resizable=0;points=[];autosize=1;align=left;verticalAlign=top;spacingTop=-4;" vertex="1" parent="1">
          <mxGeometry x="240" y="75" width="40" height="20" as="geometry"/>
        </mxCell>
        <mxCell id="HMnzymwOtI_n0Ta_HW3j-27" value="url2" style="text;html=1;resizable=0;points=[];autosize=1;align=left;verticalAlign=top;spacingTop=-4;" vertex="1" parent="1">
          <mxGeometry x="280" y="140" width="40" height="20" as="geometry"/>
        </mxCell>
        <mxCell id="HMnzymwOtI_n0Ta_HW3j-28" value="domian name" style="text;html=1;resizable=0;points=[];autosize=1;align=left;verticalAlign=top;spacingTop=-4;" vertex="1" parent="1">
          <mxGeometry x="50" y="450" width="90" height="20" as="geometry"/>
        </mxCell>
        <mxCell id="HMnzymwOtI_n0Ta_HW3j-29" value="" style="image;html=1;labelBackgroundColor=#ffffff;image=img/lib/clip_art/computers/Server_128x128.png" vertex="1" parent="1">
          <mxGeometry x="320" y="360" width="80" height="80" as="geometry"/>
        </mxCell>
        <mxCell id="HMnzymwOtI_n0Ta_HW3j-30" value="" style="image;html=1;labelBackgroundColor=#ffffff;image=img/lib/clip_art/computers/Server_128x128.png" vertex="1" parent="1">
          <mxGeometry x="320" y="460" width="80" height="80" as="geometry"/>
        </mxCell>
        <mxCell id="HMnzymwOtI_n0Ta_HW3j-31" value="" style="image;html=1;labelBackgroundColor=#ffffff;image=img/lib/clip_art/computers/Server_128x128.png" vertex="1" parent="1">
          <mxGeometry x="320" y="570" width="80" height="80" as="geometry"/>
        </mxCell>
        <mxCell id="HMnzymwOtI_n0Ta_HW3j-32" value="" style="shape=flexArrow;endArrow=classic;html=1;" edge="1" parent="1">
          <mxGeometry width="50" height="50" relative="1" as="geometry">
            <mxPoint x="230" y="460" as="sourcePoint"/>
            <mxPoint x="310" y="410" as="targetPoint"/>
          </mxGeometry>
        </mxCell>
        <mxCell id="HMnzymwOtI_n0Ta_HW3j-33" value="" style="shape=flexArrow;endArrow=classic;html=1;" edge="1" parent="1">
          <mxGeometry width="50" height="50" relative="1" as="geometry">
            <mxPoint x="230" y="500" as="sourcePoint"/>
            <mxPoint x="310" y="500" as="targetPoint"/>
          </mxGeometry>
        </mxCell>
        <mxCell id="HMnzymwOtI_n0Ta_HW3j-34" value="" style="shape=flexArrow;endArrow=classic;html=1;" edge="1" parent="1">
          <mxGeometry width="50" height="50" relative="1" as="geometry">
            <mxPoint x="230" y="550" as="sourcePoint"/>
            <mxPoint x="300" y="590" as="targetPoint"/>
          </mxGeometry>
        </mxCell>
        <mxCell id="HMnzymwOtI_n0Ta_HW3j-35" value="IP1" style="text;html=1;resizable=0;points=[];autosize=1;align=left;verticalAlign=top;spacingTop=-4;" vertex="1" parent="1">
          <mxGeometry x="245" y="400" width="30" height="20" as="geometry"/>
        </mxCell>
        <mxCell id="HMnzymwOtI_n0Ta_HW3j-38" value="IP2" style="text;html=1;resizable=0;points=[];autosize=1;align=left;verticalAlign=top;spacingTop=-4;" vertex="1" parent="1">
          <mxGeometry x="245" y="480" width="30" height="20" as="geometry"/>
        </mxCell>
        <mxCell id="HMnzymwOtI_n0Ta_HW3j-39" value="IP3" style="text;html=1;resizable=0;points=[];autosize=1;align=left;verticalAlign=top;spacingTop=-4;" vertex="1" parent="1">
          <mxGeometry x="250" y="540" width="30" height="20" as="geometry"/>
        </mxCell>
        <mxCell id="HMnzymwOtI_n0Ta_HW3j-40" value="" style="shape=image;html=1;verticalAlign=top;verticalLabelPosition=bottom;labelBackgroundColor=#ffffff;imageAspect=0;aspect=fixed;image=https://cdn4.iconfinder.com/data/icons/logos-brands-5/24/nginx-128.png" vertex="1" parent="1">
          <mxGeometry x="135" y="800" width="50" height="50" as="geometry"/>
        </mxCell>
        <mxCell id="HMnzymwOtI_n0Ta_HW3j-41" value="" style="shape=image;html=1;verticalAlign=top;verticalLabelPosition=bottom;labelBackgroundColor=#ffffff;imageAspect=0;aspect=fixed;image=https://cdn4.iconfinder.com/data/icons/logos-brands-5/24/nginx-128.png" vertex="1" parent="1">
          <mxGeometry x="595" y="360" width="60" height="60" as="geometry"/>
        </mxCell>
        <mxCell id="HMnzymwOtI_n0Ta_HW3j-42" value="Proxy" style="text;html=1;resizable=0;points=[];autosize=1;align=left;verticalAlign=top;spacingTop=-4;" vertex="1" parent="1">
          <mxGeometry x="680" y="390" width="50" height="20" as="geometry"/>
        </mxCell>
        <mxCell id="HMnzymwOtI_n0Ta_HW3j-43" value="" style="shape=flexArrow;endArrow=classic;html=1;" edge="1" parent="1">
          <mxGeometry width="50" height="50" relative="1" as="geometry">
            <mxPoint x="60" y="824.5" as="sourcePoint"/>
            <mxPoint x="130" y="824.5" as="targetPoint"/>
          </mxGeometry>
        </mxCell>
        <mxCell id="HMnzymwOtI_n0Ta_HW3j-44" value="HTTP" style="text;html=1;resizable=0;points=[];autosize=1;align=left;verticalAlign=top;spacingTop=-4;" vertex="1" parent="1">
          <mxGeometry x="70" y="795" width="50" height="20" as="geometry"/>
        </mxCell>
        <mxCell id="HMnzymwOtI_n0Ta_HW3j-45" value="" style="aspect=fixed;perimeter=ellipsePerimeter;html=1;align=center;shadow=0;dashed=0;spacingTop=3;image;image=img/lib/active_directory/web_server.svg;" vertex="1" parent="1">
          <mxGeometry x="290" y="730" width="40" height="50" as="geometry"/>
        </mxCell>
        <mxCell id="HMnzymwOtI_n0Ta_HW3j-47" value="" style="aspect=fixed;perimeter=ellipsePerimeter;html=1;align=center;shadow=0;dashed=0;spacingTop=3;image;image=img/lib/active_directory/web_server.svg;" vertex="1" parent="1">
          <mxGeometry x="290" y="880" width="40" height="50" as="geometry"/>
        </mxCell>
        <mxCell id="HMnzymwOtI_n0Ta_HW3j-49" value="" style="shape=flexArrow;endArrow=classic;html=1;" edge="1" parent="1">
          <mxGeometry width="50" height="50" relative="1" as="geometry">
            <mxPoint x="190" y="795" as="sourcePoint"/>
            <mxPoint x="260" y="750" as="targetPoint"/>
          </mxGeometry>
        </mxCell>
        <mxCell id="HMnzymwOtI_n0Ta_HW3j-53" value="" style="shape=flexArrow;endArrow=classic;html=1;" edge="1" parent="1">
          <mxGeometry width="50" height="50" relative="1" as="geometry">
            <mxPoint x="185" y="860" as="sourcePoint"/>
            <mxPoint x="265" y="900" as="targetPoint"/>
          </mxGeometry>
        </mxCell>
        <mxCell id="HMnzymwOtI_n0Ta_HW3j-54" value="" style="shape=flexArrow;endArrow=classic;html=1;" edge="1" parent="1">
          <mxGeometry width="50" height="50" relative="1" as="geometry">
            <mxPoint x="272.5" y="775" as="sourcePoint"/>
            <mxPoint x="202.5" y="815" as="targetPoint"/>
          </mxGeometry>
        </mxCell>
        <mxCell id="HMnzymwOtI_n0Ta_HW3j-55" value="" style="shape=flexArrow;endArrow=classic;html=1;" edge="1" parent="1">
          <mxGeometry width="50" height="50" relative="1" as="geometry">
            <mxPoint x="265" y="870" as="sourcePoint"/>
            <mxPoint x="195" y="840" as="targetPoint"/>
          </mxGeometry>
        </mxCell>
        <mxCell id="HMnzymwOtI_n0Ta_HW3j-56" value="" style="image;html=1;labelBackgroundColor=#ffffff;image=img/lib/clip_art/computers/Server_128x128.png" vertex="1" parent="1">
          <mxGeometry x="130" y="1100" width="80" height="80" as="geometry"/>
        </mxCell>
        <mxCell id="HMnzymwOtI_n0Ta_HW3j-57" value="" style="shape=flexArrow;endArrow=classic;html=1;" edge="1" parent="1">
          <mxGeometry width="50" height="50" relative="1" as="geometry">
            <mxPoint x="47.5" y="1139" as="sourcePoint"/>
            <mxPoint x="122.5" y="1139.5" as="targetPoint"/>
          </mxGeometry>
        </mxCell>
        <mxCell id="HMnzymwOtI_n0Ta_HW3j-58" value="Package" style="text;html=1;resizable=0;points=[];autosize=1;align=left;verticalAlign=top;spacingTop=-4;" vertex="1" parent="1">
          <mxGeometry x="50" y="1110" width="60" height="20" as="geometry"/>
        </mxCell>
        <mxCell id="HMnzymwOtI_n0Ta_HW3j-59" value="" style="image;html=1;labelBackgroundColor=#ffffff;image=img/lib/clip_art/computers/Server_128x128.png" vertex="1" parent="1">
          <mxGeometry x="290" y="1060" width="80" height="80" as="geometry"/>
        </mxCell>
        <mxCell id="HMnzymwOtI_n0Ta_HW3j-60" value="" style="image;html=1;labelBackgroundColor=#ffffff;image=img/lib/clip_art/computers/Server_128x128.png" vertex="1" parent="1">
          <mxGeometry x="280" y="1190" width="80" height="80" as="geometry"/>
        </mxCell>
        <mxCell id="HMnzymwOtI_n0Ta_HW3j-61" value="" style="shape=flexArrow;endArrow=classic;html=1;" edge="1" parent="1">
          <mxGeometry width="50" height="50" relative="1" as="geometry">
            <mxPoint x="215" y="1120" as="sourcePoint"/>
            <mxPoint x="275" y="1090" as="targetPoint"/>
          </mxGeometry>
        </mxCell>
        <mxCell id="HMnzymwOtI_n0Ta_HW3j-62" value="" style="shape=flexArrow;endArrow=classic;html=1;" edge="1" parent="1">
          <mxGeometry width="50" height="50" relative="1" as="geometry">
            <mxPoint x="210" y="1150" as="sourcePoint"/>
            <mxPoint x="270" y="1200" as="targetPoint"/>
          </mxGeometry>
        </mxCell>
        <mxCell id="HMnzymwOtI_n0Ta_HW3j-63" value="10.10.10.10:80" style="text;html=1;resizable=0;points=[];autosize=1;align=left;verticalAlign=top;spacingTop=-4;" vertex="1" parent="1">
          <mxGeometry x="120" y="1090" width="100" height="20" as="geometry"/>
        </mxCell>
        <mxCell id="HMnzymwOtI_n0Ta_HW3j-64" value="10.10.100.1:30000" style="text;html=1;resizable=0;points=[];autosize=1;align=left;verticalAlign=top;spacingTop=-4;" vertex="1" parent="1">
          <mxGeometry x="300" y="1040" width="120" height="20" as="geometry"/>
        </mxCell>
        <mxCell id="HMnzymwOtI_n0Ta_HW3j-65" value="10.10.100.2:30000" style="text;html=1;resizable=0;points=[];autosize=1;align=left;verticalAlign=top;spacingTop=-4;" vertex="1" parent="1">
          <mxGeometry x="280" y="1180" width="120" height="20" as="geometry"/>
        </mxCell>
        <mxCell id="HMnzymwOtI_n0Ta_HW3j-66" value="RR" style="text;html=1;resizable=0;points=[];autosize=1;align=left;verticalAlign=top;spacingTop=-4;" vertex="1" parent="1">
          <mxGeometry x="495" y="1130" width="30" height="20" as="geometry"/>
        </mxCell>
        <mxCell id="HMnzymwOtI_n0Ta_HW3j-67" value="LC&lt;br&gt;" style="text;html=1;resizable=0;points=[];autosize=1;align=left;verticalAlign=top;spacingTop=-4;" vertex="1" parent="1">
          <mxGeometry x="495" y="1164" width="30" height="20" as="geometry"/>
        </mxCell>
        <mxCell id="HMnzymwOtI_n0Ta_HW3j-68" value="WLC" style="text;html=1;resizable=0;points=[];autosize=1;align=left;verticalAlign=top;spacingTop=-4;" vertex="1" parent="1">
          <mxGeometry x="490" y="1198" width="40" height="20" as="geometry"/>
        </mxCell>
        <mxCell id="HMnzymwOtI_n0Ta_HW3j-69" value="" style="shape=flexArrow;endArrow=classic;html=1;" edge="1" parent="1">
          <mxGeometry width="50" height="50" relative="1" as="geometry">
            <mxPoint x="280" y="1120" as="sourcePoint"/>
            <mxPoint x="230" y="1140" as="targetPoint"/>
          </mxGeometry>
        </mxCell>
        <mxCell id="HMnzymwOtI_n0Ta_HW3j-70" value="" style="shape=flexArrow;endArrow=classic;html=1;" edge="1" parent="1" target="HMnzymwOtI_n0Ta_HW3j-56">
          <mxGeometry width="50" height="50" relative="1" as="geometry">
            <mxPoint x="255" y="1229" as="sourcePoint"/>
            <mxPoint x="185" y="1179" as="targetPoint"/>
            <Array as="points">
              <mxPoint x="220" y="1200"/>
            </Array>
          </mxGeometry>
        </mxCell>
        <mxCell id="HMnzymwOtI_n0Ta_HW3j-71" value="" style="image;html=1;labelBackgroundColor=#ffffff;image=img/lib/clip_art/computers/Server_128x128.png" vertex="1" parent="1">
          <mxGeometry x="110" y="1420" width="80" height="80" as="geometry"/>
        </mxCell>
        <mxCell id="HMnzymwOtI_n0Ta_HW3j-72" value="" style="shape=flexArrow;endArrow=classic;html=1;" edge="1" parent="1">
          <mxGeometry width="50" height="50" relative="1" as="geometry">
            <mxPoint x="27.5" y="1459" as="sourcePoint"/>
            <mxPoint x="102.5" y="1459.5" as="targetPoint"/>
          </mxGeometry>
        </mxCell>
        <mxCell id="HMnzymwOtI_n0Ta_HW3j-73" value="Package" style="text;html=1;resizable=0;points=[];autosize=1;align=left;verticalAlign=top;spacingTop=-4;" vertex="1" parent="1">
          <mxGeometry x="30" y="1430" width="60" height="20" as="geometry"/>
        </mxCell>
        <mxCell id="HMnzymwOtI_n0Ta_HW3j-74" value="" style="image;html=1;labelBackgroundColor=#ffffff;image=img/lib/clip_art/computers/Server_128x128.png" vertex="1" parent="1">
          <mxGeometry x="270" y="1380" width="80" height="80" as="geometry"/>
        </mxCell>
        <mxCell id="HMnzymwOtI_n0Ta_HW3j-75" value="" style="image;html=1;labelBackgroundColor=#ffffff;image=img/lib/clip_art/computers/Server_128x128.png" vertex="1" parent="1">
          <mxGeometry x="275" y="1510" width="80" height="80" as="geometry"/>
        </mxCell>
        <mxCell id="HMnzymwOtI_n0Ta_HW3j-76" value="" style="shape=flexArrow;endArrow=classic;html=1;" edge="1" parent="1">
          <mxGeometry width="50" height="50" relative="1" as="geometry">
            <mxPoint x="195" y="1440" as="sourcePoint"/>
            <mxPoint x="255" y="1410" as="targetPoint"/>
          </mxGeometry>
        </mxCell>
        <mxCell id="HMnzymwOtI_n0Ta_HW3j-77" value="" style="shape=flexArrow;endArrow=classic;html=1;" edge="1" parent="1">
          <mxGeometry width="50" height="50" relative="1" as="geometry">
            <mxPoint x="190" y="1470" as="sourcePoint"/>
            <mxPoint x="250" y="1520" as="targetPoint"/>
          </mxGeometry>
        </mxCell>
        <mxCell id="HMnzymwOtI_n0Ta_HW3j-78" value="10.10.10.10:80" style="text;html=1;resizable=0;points=[];autosize=1;align=left;verticalAlign=top;spacingTop=-4;" vertex="1" parent="1">
          <mxGeometry x="100" y="1410" width="100" height="20" as="geometry"/>
        </mxCell>
        <mxCell id="HMnzymwOtI_n0Ta_HW3j-79" value="10.10.10.20:80" style="text;html=1;resizable=0;points=[];autosize=1;align=left;verticalAlign=top;spacingTop=-4;" vertex="1" parent="1">
          <mxGeometry x="280" y="1360" width="100" height="20" as="geometry"/>
        </mxCell>
        <mxCell id="HMnzymwOtI_n0Ta_HW3j-80" value="10.10.10.21:80" style="text;html=1;resizable=0;points=[];autosize=1;align=left;verticalAlign=top;spacingTop=-4;" vertex="1" parent="1">
          <mxGeometry x="275" y="1500" width="100" height="20" as="geometry"/>
        </mxCell>
        <mxCell id="HMnzymwOtI_n0Ta_HW3j-83" value="mac1" style="text;html=1;resizable=0;points=[];autosize=1;align=left;verticalAlign=top;spacingTop=-4;" vertex="1" parent="1">
          <mxGeometry x="370" y="1410" width="50" height="20" as="geometry"/>
        </mxCell>
        <mxCell id="HMnzymwOtI_n0Ta_HW3j-84" value="mac2" style="text;html=1;resizable=0;points=[];autosize=1;align=left;verticalAlign=top;spacingTop=-4;" vertex="1" parent="1">
          <mxGeometry x="365" y="1540" width="50" height="20" as="geometry"/>
        </mxCell>
      </root>
    </mxGraphModel>
  </diagram>
</mxfile>
